<?xml version="1.0" encoding="utf-8"?>
<!-- Generator: Adobe Illustrator 26.0.3, SVG Export Plug-In . SVG Version: 6.00 Build 0)  -->
<svg version="1.1" xmlns="http://www.w3.org/2000/svg" xmlns:xlink="http://www.w3.org/1999/xlink" x="0px" y="0px"
	 viewBox="0 0 200 200" style="enable-background:new 0 0 200 200;" xml:space="preserve">
<style type="text/css">
	.st0{fill:#096563;}
	.st1{fill:url(#SVGID_1_);}
	.st2{fill:url(#SVGID_00000181072732260162185090000000112778118855041672_);}
	.st3{fill:#F3BF96;}
	.st4{fill:url(#SVGID_00000183967839049329685150000009623526841806906288_);}
	.st5{fill:url(#SVGID_00000003100509405411695890000010307392717039645315_);}
	.st6{fill:#235251;}
	.st7{opacity:0.25;fill:#235251;}
	.st8{fill:url(#SVGID_00000060718841505746318980000017039902532108923777_);}
	.st9{fill:url(#SVGID_00000087413042101489894310000015779008093938768314_);}
	.st10{fill:url(#SVGID_00000103228301794272260060000008127560894342305463_);}
	.st11{fill:url(#SVGID_00000116205351449924501610000014371084332622178465_);}
	.st12{fill:url(#SVGID_00000092435513262038273670000005284162459546422453_);}
	.st13{fill:url(#SVGID_00000169552125666343160320000012087999870643573921_);}
	.st14{fill:url(#SVGID_00000116224714884379442410000000412275458234790541_);}
	.st15{fill:#4A2B18;}
	.st16{fill:#231108;}
	.st17{fill:#5E3B27;}
	.st18{fill:#202428;}
	.st19{opacity:0.45;fill:#FFFFFF;}
	.st20{fill:url(#SVGID_00000034086764192862100680000015447799019363864238_);}
	.st21{fill:#FFFFFF;}
	.st22{fill:url(#SVGID_00000135665360857068622650000002933200947571370907_);}
	.st23{fill:url(#SVGID_00000149381247310605275740000005179185054852414344_);}
	.st24{fill:url(#SVGID_00000124158342802478664210000011915572863270440867_);}
	.st25{fill:none;stroke:#D7A783;stroke-width:0.2386;stroke-miterlimit:10;}
	.st26{fill:url(#SVGID_00000080171445140099415500000001174462004608476345_);}
	.st27{fill:url(#SVGID_00000050632097384920033300000011243381550163355023_);}
	.st28{fill:url(#SVGID_00000085228200108100319200000005292292369597766051_);}
	.st29{fill:url(#SVGID_00000163045488887046350930000016029133507824224133_);}
	.st30{fill:url(#SVGID_00000048465517014079763050000010725870748964918913_);}
	.st31{fill:url(#SVGID_00000057123399511808646520000017944712593386048171_);}
	.st32{clip-path:url(#SVGID_00000166642089417058132340000004215234036386306450_);fill:#BF6E51;}
	.st33{clip-path:url(#SVGID_00000166642089417058132340000004215234036386306450_);fill:#C06F52;}
	.st34{clip-path:url(#SVGID_00000166642089417058132340000004215234036386306450_);fill:#C07053;}
	.st35{clip-path:url(#SVGID_00000166642089417058132340000004215234036386306450_);fill:#C17154;}
	.st36{clip-path:url(#SVGID_00000166642089417058132340000004215234036386306450_);fill:#C27254;}
	.st37{clip-path:url(#SVGID_00000166642089417058132340000004215234036386306450_);fill:#C27355;}
	.st38{clip-path:url(#SVGID_00000166642089417058132340000004215234036386306450_);fill:#C37456;}
	.st39{clip-path:url(#SVGID_00000166642089417058132340000004215234036386306450_);fill:#C47557;}
	.st40{clip-path:url(#SVGID_00000166642089417058132340000004215234036386306450_);fill:#C47658;}
	.st41{clip-path:url(#SVGID_00000166642089417058132340000004215234036386306450_);fill:#C57759;}
	.st42{clip-path:url(#SVGID_00000166642089417058132340000004215234036386306450_);fill:#C6785A;}
	.st43{clip-path:url(#SVGID_00000166642089417058132340000004215234036386306450_);fill:#C6795A;}
	.st44{clip-path:url(#SVGID_00000166642089417058132340000004215234036386306450_);fill:#C77A5B;}
	.st45{clip-path:url(#SVGID_00000166642089417058132340000004215234036386306450_);fill:#C77B5C;}
	.st46{clip-path:url(#SVGID_00000166642089417058132340000004215234036386306450_);fill:#C87C5D;}
	.st47{clip-path:url(#SVGID_00000166642089417058132340000004215234036386306450_);fill:#C97D5E;}
	.st48{clip-path:url(#SVGID_00000166642089417058132340000004215234036386306450_);fill:#C97E5F;}
	.st49{clip-path:url(#SVGID_00000166642089417058132340000004215234036386306450_);fill:#CA7F60;}
	.st50{clip-path:url(#SVGID_00000166642089417058132340000004215234036386306450_);fill:#CB8061;}
	.st51{clip-path:url(#SVGID_00000166642089417058132340000004215234036386306450_);fill:#CB8161;}
	.st52{clip-path:url(#SVGID_00000166642089417058132340000004215234036386306450_);fill:#CC8262;}
	.st53{clip-path:url(#SVGID_00000166642089417058132340000004215234036386306450_);fill:#CD8363;}
	.st54{clip-path:url(#SVGID_00000166642089417058132340000004215234036386306450_);fill:#CD8464;}
	.st55{clip-path:url(#SVGID_00000166642089417058132340000004215234036386306450_);fill:#CE8565;}
	.st56{clip-path:url(#SVGID_00000166642089417058132340000004215234036386306450_);fill:#CF8666;}
	.st57{clip-path:url(#SVGID_00000166642089417058132340000004215234036386306450_);fill:#CF8767;}
	.st58{clip-path:url(#SVGID_00000166642089417058132340000004215234036386306450_);fill:#D08867;}
	.st59{clip-path:url(#SVGID_00000166642089417058132340000004215234036386306450_);fill:#D18968;}
	.st60{clip-path:url(#SVGID_00000166642089417058132340000004215234036386306450_);fill:#D18A69;}
	.st61{clip-path:url(#SVGID_00000166642089417058132340000004215234036386306450_);fill:#D28B6A;}
	.st62{clip-path:url(#SVGID_00000166642089417058132340000004215234036386306450_);fill:#D38C6B;}
	.st63{clip-path:url(#SVGID_00000166642089417058132340000004215234036386306450_);fill:#D38D6C;}
	.st64{clip-path:url(#SVGID_00000166642089417058132340000004215234036386306450_);fill:#D48E6D;}
	.st65{clip-path:url(#SVGID_00000166642089417058132340000004215234036386306450_);fill:#D48F6D;}
	.st66{clip-path:url(#SVGID_00000166642089417058132340000004215234036386306450_);fill:#D5906E;}
	.st67{clip-path:url(#SVGID_00000166642089417058132340000004215234036386306450_);fill:#D6916F;}
	.st68{clip-path:url(#SVGID_00000166642089417058132340000004215234036386306450_);fill:#D69270;}
	.st69{clip-path:url(#SVGID_00000166642089417058132340000004215234036386306450_);fill:#D79371;}
	.st70{clip-path:url(#SVGID_00000166642089417058132340000004215234036386306450_);fill:#D89472;}
	.st71{clip-path:url(#SVGID_00000166642089417058132340000004215234036386306450_);fill:#D89573;}
	.st72{clip-path:url(#SVGID_00000166642089417058132340000004215234036386306450_);fill:#D99774;}
	.st73{clip-path:url(#SVGID_00000166642089417058132340000004215234036386306450_);fill:#DA9874;}
	.st74{clip-path:url(#SVGID_00000166642089417058132340000004215234036386306450_);fill:#DA9975;}
	.st75{clip-path:url(#SVGID_00000166642089417058132340000004215234036386306450_);fill:#DB9A76;}
	.st76{clip-path:url(#SVGID_00000166642089417058132340000004215234036386306450_);fill:#DC9B77;}
	.st77{clip-path:url(#SVGID_00000166642089417058132340000004215234036386306450_);fill:#DC9C78;}
	.st78{clip-path:url(#SVGID_00000166642089417058132340000004215234036386306450_);fill:#DD9D79;}
	.st79{clip-path:url(#SVGID_00000166642089417058132340000004215234036386306450_);fill:#DE9E7A;}
	.st80{clip-path:url(#SVGID_00000166642089417058132340000004215234036386306450_);fill:#DE9F7A;}
	.st81{clip-path:url(#SVGID_00000166642089417058132340000004215234036386306450_);fill:#DFA07B;}
	.st82{clip-path:url(#SVGID_00000166642089417058132340000004215234036386306450_);fill:#E0A17C;}
	.st83{clip-path:url(#SVGID_00000166642089417058132340000004215234036386306450_);fill:#E0A27D;}
	.st84{clip-path:url(#SVGID_00000166642089417058132340000004215234036386306450_);fill:#E1A37E;}
	.st85{clip-path:url(#SVGID_00000166642089417058132340000004215234036386306450_);fill:#E1A47F;}
	.st86{clip-path:url(#SVGID_00000166642089417058132340000004215234036386306450_);fill:#E2A580;}
	.st87{clip-path:url(#SVGID_00000166642089417058132340000004215234036386306450_);fill:#E3A680;}
	.st88{clip-path:url(#SVGID_00000166642089417058132340000004215234036386306450_);fill:#E3A781;}
	.st89{clip-path:url(#SVGID_00000166642089417058132340000004215234036386306450_);fill:#E4A882;}
	.st90{clip-path:url(#SVGID_00000166642089417058132340000004215234036386306450_);fill:#E5A983;}
	.st91{clip-path:url(#SVGID_00000166642089417058132340000004215234036386306450_);fill:#E5AA84;}
	.st92{clip-path:url(#SVGID_00000166642089417058132340000004215234036386306450_);fill:#E6AB85;}
	.st93{clip-path:url(#SVGID_00000166642089417058132340000004215234036386306450_);fill:#E7AC86;}
	.st94{clip-path:url(#SVGID_00000166642089417058132340000004215234036386306450_);fill:#E7AD86;}
	.st95{clip-path:url(#SVGID_00000166642089417058132340000004215234036386306450_);fill:#E8AE87;}
	.st96{clip-path:url(#SVGID_00000166642089417058132340000004215234036386306450_);fill:#E9AF88;}
	.st97{clip-path:url(#SVGID_00000166642089417058132340000004215234036386306450_);fill:#E9B089;}
	.st98{clip-path:url(#SVGID_00000166642089417058132340000004215234036386306450_);fill:#EAB18A;}
	.st99{clip-path:url(#SVGID_00000166642089417058132340000004215234036386306450_);fill:#EBB28B;}
	.st100{clip-path:url(#SVGID_00000166642089417058132340000004215234036386306450_);fill:#EBB38C;}
	.st101{clip-path:url(#SVGID_00000166642089417058132340000004215234036386306450_);fill:#ECB48D;}
	.st102{clip-path:url(#SVGID_00000166642089417058132340000004215234036386306450_);fill:#EDB58D;}
	.st103{clip-path:url(#SVGID_00000166642089417058132340000004215234036386306450_);fill:#EDB68E;}
	.st104{clip-path:url(#SVGID_00000166642089417058132340000004215234036386306450_);fill:#EEB78F;}
	.st105{clip-path:url(#SVGID_00000166642089417058132340000004215234036386306450_);fill:#EEB890;}
	.st106{clip-path:url(#SVGID_00000166642089417058132340000004215234036386306450_);fill:#EFB991;}
	.st107{clip-path:url(#SVGID_00000166642089417058132340000004215234036386306450_);fill:#F0BA92;}
	.st108{clip-path:url(#SVGID_00000166642089417058132340000004215234036386306450_);fill:#F0BB93;}
	.st109{clip-path:url(#SVGID_00000166642089417058132340000004215234036386306450_);fill:#F1BC93;}
	.st110{clip-path:url(#SVGID_00000166642089417058132340000004215234036386306450_);fill:#F2BD94;}
	.st111{clip-path:url(#SVGID_00000166642089417058132340000004215234036386306450_);fill:#F2BE95;}
	.st112{clip-path:url(#SVGID_00000166642089417058132340000004215234036386306450_);fill:#F3BF96;}
	.st113{fill:url(#SVGID_00000018921783836340671710000002675648110811028368_);}
	.st114{fill:url(#SVGID_00000088135246510824135780000016172039842615528325_);}
	.st115{opacity:0.5;fill:#F3BF96;}
	.st116{fill:url(#SVGID_00000103252508460069288530000015072906609901983894_);}
	.st117{fill:url(#SVGID_00000042001184467708056540000012160017498123742628_);}
	.st118{fill:none;}
	.st119{clip-path:url(#SVGID_00000132055721626329897360000017373345682428693926_);}
	.st120{fill:#CBD5E1;}
</style>
<g id="Skulder">
	<g>
		<path class="st0" d="M91.01,119.23L18.6,95.59c-7.1-2.4-14.8,1.38-17.24,8.47l0,0c-2.27,6.6,0.82,13.85,7.15,16.79l68.94,33.04
			L91.01,119.23z"/>
		
			<linearGradient id="SVGID_1_" gradientUnits="userSpaceOnUse" x1="472.4483" y1="-398.0333" x2="495.9008" y2="-389.1013" gradientTransform="matrix(-0.0346 0.9994 -0.9994 -0.0346 -335.0485 -373.6213)">
			<stop  offset="0" style="stop-color:#096563;stop-opacity:0"/>
			<stop  offset="1" style="stop-color:#225352"/>
		</linearGradient>
		<path class="st1" d="M91.01,119.23L18.6,95.59c-7.1-2.4-14.8,1.38-17.24,8.47l0,0c-2.27,6.6,0.82,13.85,7.15,16.79l68.94,33.04
			L91.01,119.23z"/>
	</g>
</g>
<g id="Layer_21">
	<g>
		<path class="st0" d="M168.69,128.49l29.57,70.21c2.98,6.87-0.15,14.86-7.01,17.88l0,0c-6.39,2.81-13.87,0.34-17.32-5.73
			l-38.64-65.97L168.69,128.49z"/>
		
			<linearGradient id="SVGID_00000109735300824151382160000011817369219538090389_" gradientUnits="userSpaceOnUse" x1="237.4171" y1="-215.2165" x2="260.8696" y2="-206.2845" gradientTransform="matrix(-0.9931 0.1174 0.1174 0.9931 440.3126 358.2513)">
			<stop  offset="0" style="stop-color:#096563;stop-opacity:0"/>
			<stop  offset="1" style="stop-color:#225352"/>
		</linearGradient>
		<path style="fill:url(#SVGID_00000109735300824151382160000011817369219538090389_);" d="M168.69,128.49l29.57,70.21
			c2.98,6.87-0.15,14.86-7.01,17.88l0,0c-6.39,2.81-13.87,0.34-17.32-5.73l-38.64-65.97L168.69,128.49z"/>
	</g>
</g>
<g id="Arm">
	<g>
		<path class="st3" d="M47.88,42.37L47.88,42.37c3.09,1.49,4.39,5.2,2.9,8.29l-2.43,5.05c-1.49,3.09-5.2,4.39-8.29,2.9l0,0
			c-3.09-1.49-4.39-5.2-2.9-8.29l2.43-5.05C41.08,42.18,44.79,40.88,47.88,42.37z"/>
		
			<linearGradient id="SVGID_00000000187783437696176330000015517858978216160644_" gradientUnits="userSpaceOnUse" x1="-433.1752" y1="-543.8633" x2="-422.5364" y2="-538.9463" gradientTransform="matrix(-0.9937 -0.1117 0.1117 -0.9937 -323.6966 -537.0798)">
			<stop  offset="0.0573" style="stop-color:#F3BF96;stop-opacity:0"/>
			<stop  offset="0.2278" style="stop-color:#E9B089;stop-opacity:0.2443"/>
			<stop  offset="0.5538" style="stop-color:#D08968;stop-opacity:0.7115"/>
			<stop  offset="0.7551" style="stop-color:#BF6E51"/>
		</linearGradient>
		<path style="fill:url(#SVGID_00000000187783437696176330000015517858978216160644_);" d="M47.88,42.37L47.88,42.37
			c3.09,1.49,4.39,5.2,2.9,8.29l-2.43,5.05c-1.49,3.09-5.2,4.39-8.29,2.9l0,0c-3.09-1.49-4.39-5.2-2.9-8.29l2.43-5.05
			C41.08,42.18,44.79,40.88,47.88,42.37z"/>
		<path class="st0" d="M33.85,51.33L1.97,102.29c-3.55,7.51,0.3,16.43,8.19,19.01l0,0c6.72,2.2,14.02-1.05,16.89-7.51l22.04-54.91
			L33.85,51.33z"/>
		
			<linearGradient id="SVGID_00000176725569669399578830000014928002569093723053_" gradientUnits="userSpaceOnUse" x1="-422.0165" y1="-584.2338" x2="-402.9137" y2="-576.8797" gradientTransform="matrix(-0.9937 -0.1117 0.1117 -0.9937 -323.6966 -537.0798)">
			<stop  offset="0" style="stop-color:#096563;stop-opacity:0"/>
			<stop  offset="1" style="stop-color:#225352"/>
		</linearGradient>
		<path style="fill:url(#SVGID_00000176725569669399578830000014928002569093723053_);" d="M33.85,51.33L1.97,102.29
			c-3.55,7.51,0.3,16.43,8.19,19.01l0,0c6.72,2.2,14.02-1.05,16.89-7.51l22.04-54.91L33.85,51.33z"/>
		<path class="st6" d="M34.71,46.69c7.35,0.42,11.88,2.54,17.19,7.63c0.36,0.34,0.23,1.43-0.28,2.41c-0.54,1.06-1.08,2.12-1.62,3.17
			c-0.51,0.99-1.18,1.51-1.52,1.19c-5.09-4.87-9.35-6.88-16.38-7.28c-0.47-0.03-0.55-0.88-0.17-1.92c0.4-1.12,0.81-2.23,1.21-3.35
			C33.51,47.49,34.22,46.66,34.71,46.69z"/>
		<path class="st7" d="M32.1,53.81c7.03,0.4,11.29,2.4,16.38,7.28c0.33,0.32,1-0.19,1.5-1.14c-0.46,0.69-0.98,1.02-1.26,0.75
			c-5.09-4.87-9.35-6.88-16.38-7.28c-0.47-0.03-0.55-0.88-0.17-1.92c0.4-1.12,0.81-2.23,1.21-3.35c0.08-0.22,0.18-0.43,0.28-0.63
			c-0.2,0.29-0.38,0.64-0.52,1.03c-0.4,1.12-0.81,2.23-1.21,3.35C31.55,52.93,31.63,53.78,32.1,53.81z"/>
	</g>
</g>
<g id="Hals">
	<path class="st3" d="M119.37,133.7h-1.41c-6.98,0-12.48-5.94-11.96-12.89l0.53-6.99l1.3-17.26h21.68l1.3,17.26l0.53,6.99
		C131.85,127.76,126.35,133.7,119.37,133.7z"/>
	
		<radialGradient id="SVGID_00000064341337853936510510000004506553756221064088_" cx="120.282" cy="130.1078" r="47.3902" gradientTransform="matrix(1 0 0 0.5664 0 56.4169)" gradientUnits="userSpaceOnUse">
		<stop  offset="0" style="stop-color:#F3BF96;stop-opacity:0"/>
		<stop  offset="0.2443" style="stop-color:#E9B089;stop-opacity:0.2443"/>
		<stop  offset="0.7115" style="stop-color:#D08968;stop-opacity:0.7115"/>
		<stop  offset="1" style="stop-color:#BF6E51"/>
	</radialGradient>
	<path style="fill:url(#SVGID_00000064341337853936510510000004506553756221064088_);" d="M119.37,133.7h-1.41
		c-6.98,0-12.48-5.94-11.96-12.89l0.53-6.99l1.3-17.26h21.68l1.3,17.26l0.53,6.99C131.85,127.76,126.35,133.7,119.37,133.7z"/>
</g>
<g id="Genser">
	<g>
		<path class="st0" d="M171.15,141.64l-8.47,109.17c-0.6,5.86-5.53,10.31-11.41,10.31H85.63c-5.89,0-10.82-4.45-11.42-10.31
			l-8.47-109.17c-1.43-13.96,9.53-26.09,23.56-26.09h20.51c5.56,1.79,11.7,1.79,17.26,0h20.52
			C161.63,115.55,172.58,127.68,171.15,141.64z"/>
		
			<linearGradient id="SVGID_00000002349553353992244030000017008460900895679128_" gradientUnits="userSpaceOnUse" x1="118.9228" y1="88.5982" x2="117.086" y2="284.4046">
			<stop  offset="0" style="stop-color:#096563;stop-opacity:0"/>
			<stop  offset="1" style="stop-color:#225352"/>
		</linearGradient>
		<path style="fill:url(#SVGID_00000002349553353992244030000017008460900895679128_);" d="M171.15,141.64l-8.47,109.17
			c-0.6,5.86-5.53,10.31-11.41,10.31H85.63c-5.89,0-10.82-4.45-11.42-10.31l-8.47-109.17c-1.43-13.96,9.53-26.09,23.56-26.09h20.51
			c5.56,1.79,11.7,1.79,17.26,0h20.52C161.63,115.55,172.58,127.68,171.15,141.64z"/>
		<path class="st6" d="M143.45,119.17c-14.41,10.89-35.59,10.89-50,0c-1.75-1.29-2.24-3.16-1.27-4c1.25-1.13,2.47-2.3,3.67-3.49
			c1.12-1.11,2.21-2.25,3.27-3.41c0.88-0.93,2.38-0.99,3.47-0.23c2.21,1.6,4.66,2.81,7.24,3.65c5.56,1.79,11.7,1.79,17.26,0
			c2.58-0.83,5.03-2.04,7.24-3.65c1.09-0.76,2.59-0.69,3.47,0.23c1.06,1.16,2.15,2.3,3.27,3.41c1.19,1.19,2.41,2.35,3.66,3.49
			C145.69,116.01,145.2,117.88,143.45,119.17z"/>
		<path class="st7" d="M143.45,117.88c-14.41,10.89-35.59,10.89-50,0c-0.87-0.64-1.43-1.43-1.65-2.16
			c-0.37,0.95,0.22,2.39,1.65,3.45c14.41,10.89,35.59,10.89,50,0c1.43-1.06,2.02-2.5,1.65-3.45
			C144.88,116.45,144.32,117.24,143.45,117.88z"/>
	</g>
</g>
<g id="Ear_L">
	<g>
		<path class="st3" d="M77.55,51.51c-0.02,5.5,2.2,9.45,5.63,9.46c3.43,0.01,8.71-3.77,8.72-9.27c0.02-5.5-4.68-10.11-8.11-10.12
			C80.36,41.57,77.56,46.01,77.55,51.51z"/>
		<path class="st3" d="M80.43,51.67c-0.01,3.52,2.77,6.38,4.97,6.39c2.2,0.01,2.97-2.84,2.99-6.36s-1.76-6.38-3.96-6.38
			C82.23,45.3,80.44,48.15,80.43,51.67z"/>
		
			<radialGradient id="SVGID_00000081643779000780286330000015011737773478734255_" cx="-299.3086" cy="38.0302" r="7.5635" gradientTransform="matrix(-0.997 0.0778 0.1222 1.5658 -215.1013 14.792)" gradientUnits="userSpaceOnUse">
			<stop  offset="0" style="stop-color:#F3BF96;stop-opacity:0"/>
			<stop  offset="1" style="stop-color:#BF6E51"/>
		</radialGradient>
		<path style="fill:url(#SVGID_00000081643779000780286330000015011737773478734255_);" d="M80.43,51.67
			c-0.01,3.52,2.77,6.38,4.97,6.39c2.2,0.01,2.97-2.84,2.99-6.36s-1.76-6.38-3.96-6.38C82.23,45.3,80.44,48.15,80.43,51.67z"/>
	</g>
</g>
<g id="Ear_R">
	<path class="st3" d="M169.14,74.84c-2.61,4.83-6.45,7.24-9.47,5.61c-3.02-1.63-5.84-7.48-3.23-12.31
		c2.61-4.83,8.95-6.64,11.97-5.01C171.42,64.76,171.75,70,169.14,74.84z"/>
	<path class="st3" d="M166.53,73.6c-1.67,3.09-5.49,4.28-7.42,3.23s-1.25-3.92,0.42-7.01c1.67-3.09,4.6-4.76,6.53-3.71
		S168.21,70.5,166.53,73.6z"/>
	
		<radialGradient id="SVGID_00000120557887364994288330000005437502123266263988_" cx="328.9176" cy="38.0302" r="7.5635" gradientTransform="matrix(0.8383 0.5452 -0.8563 1.3166 -82.9422 -159.9421)" gradientUnits="userSpaceOnUse">
		<stop  offset="0" style="stop-color:#F3BF96;stop-opacity:0"/>
		<stop  offset="1" style="stop-color:#BF6E51"/>
	</radialGradient>
	<path style="fill:url(#SVGID_00000120557887364994288330000005437502123266263988_);" d="M166.53,73.6
		c-1.67,3.09-5.49,4.28-7.42,3.23s-1.25-3.92,0.42-7.01c1.67-3.09,4.6-4.76,6.53-3.71S168.21,70.5,166.53,73.6z"/>
</g>
<g id="Hode">
	<path class="st3" d="M158.81,69.89c-0.09,0.37-0.19,0.73-0.3,1.09c-8.76,24.24-28.28,30.27-43.75,26.33
		c-10.28-2.62-30.53-19.91-24.79-47.87c0.02-0.08,0.02-0.17,0.01-0.24c3.07-11.11,6.85-18.58,11.19-23.45
		c9.06-10.17,20.58-8.96,33.28-5.73C153.67,24.92,167.52,35.71,158.81,69.89z"/>
	
		<radialGradient id="SVGID_00000181082799668586258050000004401086705486637197_" cx="125.2208" cy="58.0705" r="73.9257" gradientUnits="userSpaceOnUse">
		<stop  offset="0" style="stop-color:#F3BF96;stop-opacity:0"/>
		<stop  offset="1" style="stop-color:#BF6E51"/>
	</radialGradient>
	<path style="fill:url(#SVGID_00000181082799668586258050000004401086705486637197_);" d="M158.81,69.89
		c-0.09,0.37-0.19,0.73-0.3,1.09c-8.76,24.24-28.28,30.27-43.75,26.33c-10.28-2.62-30.53-19.91-24.79-47.87
		c0.02-0.08,0.02-0.17,0.01-0.24c3.07-11.11,6.85-18.58,11.19-23.45c9.06-10.17,20.58-8.96,33.28-5.73
		C153.67,24.92,167.52,35.71,158.81,69.89z"/>
</g>
<g id="Nese">
	<path class="st3" d="M130.58,67.17c-0.84,3.31-5.2,5.06-9.73,3.91c-4.53-1.15-7.52-4.78-6.67-8.09c0.84-3.31,5.52-6.33,10.05-5.18
		C128.76,58.96,131.43,63.85,130.58,67.17z"/>
	<g>
		
			<radialGradient id="SVGID_00000140694249570773054590000005012361930990049935_" cx="291.8522" cy="37.4952" r="30.7365" gradientTransform="matrix(0.9691 0.2468 -0.1119 0.4395 -154.1919 -28.7168)" gradientUnits="userSpaceOnUse">
			<stop  offset="0" style="stop-color:#F3BF96;stop-opacity:0"/>
			<stop  offset="1" style="stop-color:#9D5351"/>
		</radialGradient>
		<path style="fill:url(#SVGID_00000140694249570773054590000005012361930990049935_);" d="M131.16,67.31
			c-0.84,3.31-5.2,5.06-9.73,3.91c-4.53-1.15-7.52-4.78-6.67-8.09c0.84-3.31,5.52-6.33,10.05-5.18C129.34,59.11,132,64,131.16,67.31
			z"/>
		
			<radialGradient id="SVGID_00000040544680967245473880000005773879188797620653_" cx="292.062" cy="258.4523" r="18.4998" gradientTransform="matrix(0.9691 0.2468 -0.076 0.2982 -142.0344 -76.4508)" gradientUnits="userSpaceOnUse">
			<stop  offset="0" style="stop-color:#9D5351"/>
			<stop  offset="1" style="stop-color:#F3BF96;stop-opacity:0"/>
		</radialGradient>
		<path style="fill:url(#SVGID_00000040544680967245473880000005773879188797620653_);" d="M129.13,70.16
			c-1.66,1.17-4.21,1.95-7.7,1.07c-3.29-0.84-5.05-2.55-6.25-4.62c0.4-1.57,4.21-1.95,7.7-1.07
			C126.36,66.43,129.53,68.59,129.13,70.16z"/>
	</g>
</g>
<g id="Skjegg">
	<path class="st15" d="M161.35,66.84l-0.01-0.03c-0.19-0.68-1.15-0.69-1.35-0.01c-8.32,27.3-34.17,32.85-44.37,30.25
		c-0.15-0.04-0.3-0.08-0.45-0.12l0,0l0,0l0,0l0,0c-0.15-0.04-0.3-0.07-0.45-0.11c-10.2-2.6-30.25-19.84-24.49-47.79
		c0.14-0.69-0.7-1.14-1.2-0.64l-0.02,0.02c-0.09,0.09-0.15,0.2-0.18,0.32c-7.64,30.27,6.56,46.18,16.06,53.12
		c2.44,1.78,5.19,3.04,8.07,3.73c2.86,0.77,5.88,0.98,8.87,0.58c11.67-1.55,31.74-8.72,39.51-38.96
		C161.39,67.09,161.39,66.96,161.35,66.84z"/>
	<g>
		<g>
			<path class="st15" d="M141.51,92.27c-0.24-2-0.33-5.54-1.24-7.27c-2.41-4.41-7.72-6.06-12.17-7.93
				c-1.89-0.68-5.74-1.95-7.67-2.52c0,0,0.6-2.37,0.6-2.37c2.02,0.43,6.03,1.42,8.02,1.98c6.89,1.96,15.5,5.14,16.61,13.32
				c0,0,0.71,4.05,0.71,4.05S141.51,92.27,141.51,92.27L141.51,92.27z"/>
		</g>
		<g>
			<path class="st15" d="M89.81,77.13c1.76-2.14,3.62-4.94,6.12-6.41c6.88-4.13,18.14-0.35,25.38,1.54c0,0-0.6,2.37-0.6,2.37
				l-3.97-0.8c-3.75-0.65-8.1-1.35-11.82-1.26c-2.25,0.08-4.83,0.38-6.63,1.73c-1.62,1.07-3.41,4.16-4.57,5.79
				C93.72,80.1,89.81,77.13,89.81,77.13L89.81,77.13z"/>
		</g>
	</g>
</g>
<g id="Bryn">
	<path class="st15" d="M154.31,48.26c-4.95-2.26-10.18-1.96-14.44,0.41c-0.63,0.35-1.43,0.07-1.73-0.67
		c-0.33-0.83-0.66-1.66-0.98-2.49c-0.28-0.68,0.13-1.55,0.92-1.87c5.62-2.29,11.89-1.77,17.35,1.44c0.77,0.45,1.12,1.38,0.81,2.01
		c-0.11,0.23-0.22,0.46-0.34,0.69C155.61,48.37,154.93,48.55,154.31,48.26z"/>
</g>
<g id="Bryn_copy">
	<path class="st15" d="M106.05,33.93c5.4-0.68,10.3,1.17,13.66,4.7c0.5,0.52,1.34,0.49,1.85-0.12c0.56-0.69,1.12-1.39,1.68-2.08
		c0.47-0.56,0.34-1.52-0.32-2.06c-4.68-3.86-10.82-5.24-16.99-3.81c-0.87,0.2-1.48,0.99-1.37,1.68c0.04,0.25,0.08,0.51,0.11,0.76
		C104.78,33.64,105.37,34.02,106.05,33.93z"/>
</g>
<g id="Sideburn">
	<g>
		<g>
			<path class="st15" d="M159.88,70.98c-0.38,0.6-1.31,0.25-1.2-0.45c0.47-3.34,0.84-6.8,1.05-10.91c0.07-1.4,0.12-2.88,0.15-4.45
				l0,0c0.01-0.34,0.01-0.69,0.02-1.04c0.05-7.53-0.6-15.36-3.2-20.25c-0.42-0.86-0.26-1.59,0.27-2.2c0.47-0.47,1.12-0.87,1.86-1.19
				c0.32-0.13,0.65-0.25,1-0.36c2.9-0.87,6.71-0.72,8.31,0.62C173.35,42.21,169.55,54.53,159.88,70.98z"/>
		</g>
		<path class="st16" d="M159.88,55.17c0.01-0.34,0.01-0.69,0.02-1.04c0.05-7.53-0.6-15.36-3.2-20.25c-0.42-0.86-0.26-1.59,0.27-2.2
			c0.47-0.47,1.12-0.87,1.86-1.19c0.32-0.13,0.65-0.25,1-0.36l0.62,1.38C162.48,39.57,160.71,51.13,159.88,55.17z"/>
		<path class="st17" d="M166.04,31.31c0.01,0,0.03,0.01,0.04,0.01c0.7,0.17,1.24,0.71,1.44,1.4c0.28,0.96,0.71,2.74,0.59,4.33
			c-0.03,0.37-0.54,0.43-0.64,0.08c-0.36-1.2-0.98-2.88-1.77-3.65c-0.58-0.56-0.71-1.07-0.67-1.45
			C165.08,31.53,165.56,31.2,166.04,31.31z"/>
	</g>
</g>
<g id="Sideburn_copy">
	<g>
		<g>
			<path class="st15" d="M88,52.68c0.05,0.71,1.03,0.85,1.27,0.18c1.19-3.16,2.52-6.37,4.3-10.08c0.61-1.26,1.27-2.58,1.99-3.98l0,0
				c0.16-0.3,0.32-0.61,0.48-0.92c3.56-6.64,7.88-13.2,12.5-16.25c0.78-0.55,0.99-1.27,0.82-2.05c-0.19-0.64-0.56-1.3-1.07-1.93
				c-0.21-0.27-0.45-0.53-0.71-0.79c-2.13-2.16-5.55-3.84-7.6-3.43C89.93,20.97,87.38,33.61,88,52.68z"/>
		</g>
		<path class="st16" d="M95.57,38.79c0.16-0.3,0.32-0.61,0.48-0.92c3.56-6.64,7.88-13.2,12.5-16.25c0.78-0.55,0.99-1.27,0.82-2.05
			c-0.19-0.64-0.56-1.3-1.07-1.93c-0.21-0.27-0.45-0.53-0.71-0.79l-1.21,0.91C100.75,23.85,96.77,34.84,95.57,38.79z"/>
		<path class="st17" d="M101.57,14.89c-0.01,0-0.03-0.01-0.04-0.01c-0.69-0.18-1.43,0.03-1.93,0.54c-0.7,0.71-1.93,2.07-2.59,3.52
			c-0.15,0.33,0.27,0.63,0.53,0.37c0.89-0.88,2.23-2.06,3.3-2.36c0.78-0.22,1.13-0.6,1.28-0.96
			C102.31,15.54,102.04,15.02,101.57,14.89z"/>
	</g>
</g>
<g id="Hår_Front">
	<path class="st15" d="M154.57,32.86c-0.8-0.23-1.57-0.5-2.27-0.77c0,0,0,0,0,0c0,0,0,0,0,0c-1.83-0.69-3.25-1.38-3.68-1.53
		c-0.46-0.19-0.92-0.38-1.39-0.56c-0.91-0.36-1.81-0.71-2.71-1.04c-0.01,0-0.01,0-0.02-0.01c-0.88-0.32-1.75-0.64-2.62-0.93
		c-3.15-1.08-6.23-1.99-9.21-2.76c-1.21-0.32-2.39-0.61-3.55-0.87c-2.93-0.67-5.72-1.21-8.32-1.64c-5.31-0.88-9.81-1.3-13.01-1.51
		c-3.19-0.21-5.09-0.22-5.23-0.25c-0.25-0.07-0.47-0.17-0.66-0.29c-0.39-0.26-0.63-0.61-0.72-1.04c-0.92-4.27,12.76-16.2,35.2-16.93
		c23.02-0.74,24.43,4.75,26.84,17.08c0.29,1.47,0.59,3.05,0.95,4.71c0.14,0.67,0.25,1.29,0.32,1.87c0,0.02,0,0.04,0.01,0.06
		c0.01,0.07,0.02,0.14,0.03,0.22C165.35,34.6,159.44,34.31,154.57,32.86z"/>
	<path class="st16" d="M154.57,32.86c-0.8-0.23-1.57-0.5-2.27-0.77c0,0,0,0,0,0c0,0,0,0,0,0c-1.83-0.69-3.25-1.38-3.68-1.53
		c-0.46-0.19-0.92-0.38-1.39-0.56l0.07-0.04c-0.88-0.34-1.8-0.68-2.77-1.01c-0.01,0-0.01,0-0.02-0.01
		c-0.88-0.32-1.75-0.64-2.62-0.93c-3.15-1.08-6.23-1.99-9.21-2.76c-1.21-0.32-2.39-0.61-3.55-0.87c-2.93-0.67-5.72-1.21-8.32-1.64
		c-5.31-0.88-9.81-1.3-13.01-1.51c-3.19-0.21-5.09-0.22-5.23-0.25c-0.25-0.07-0.47-0.17-0.66-0.29c12.24-3.06,32.16-2.23,42.36,1.19
		c-1.36-1.73-3.11-3-5.05-3.68c4.99,0.73,9.72,2.96,13.59,6.22c1.16,0.98,2.05,2.26,2.48,3.71c0.08,0.28,0.15,0.58,0.2,0.87l0,0
		c0.96,2.53,5.19,2.91,6.97,2.28c1.68-0.6,2.18-3.27,2.07-4.62C165.35,34.6,159.44,34.31,154.57,32.86z"/>
	<path class="st17" d="M158.37,10.82c-2.29-3.68-8.03-5.93-14.15-5.17c-6.12,0.76,0.34,2.13,3.08,2.35
		c2.74,0.22,7.11,1.76,8.53,3.68C157.26,13.6,159.58,12.76,158.37,10.82z"/>
	<path class="st17" d="M155.26,13.56c-1.65-2.65-5.77-4.26-10.17-3.72s0.25,1.53,2.21,1.69s5.11,1.26,6.13,2.65
		S156.13,14.96,155.26,13.56z"/>
</g>
<g id="Brille_A">
	<g>
		<path class="st18" d="M159.05,54.29c0.05-0.18-0.03-0.4-0.2-0.48c-16.33-9.51-28.24-5.14-28.24-5.14
			c-0.03-0.01-0.96-0.47-2.79-0.94l-0.37-0.09c-2.08-0.56-3.24-0.6-3.27-0.6c-0.03-0.01-4.55-5.17-14.42-7.68
			c-3.55-0.91-7.84-1.48-12.84-1.31c-0.19-0.02-0.36,0.14-0.41,0.32c-0.16,0.51-0.53,1.69-0.49,2.58c0.01,0.1,0.05,0.21,0.1,0.25
			c0.29,0.4,1.23,1.85,1.1,3.87c0,0-0.34,6.73,0.31,9.05c0.89,3.95,4.95,6.05,9.02,7.09c2.88,0.73,5.8,0.92,7.58,0.86
			c0.13,0,0.23-0.01,0.36-0.01c2.78-0.17,5.06-2.2,6.67-4.27c1.64-2.09,2.66-4.28,2.9-4.84c0.05-0.08,0.05-0.18,0.04-0.28
			c-0.12-0.42-0.21-0.84-0.26-1.27c0.05-0.58,0.41-1.62,2.5-1.09l0.86,0.22c2.08,0.53,1.9,1.62,1.66,2.18
			c-0.25,0.33-0.52,0.65-0.83,0.96c-0.05,0.08-0.11,0.17-0.13,0.26c-0.08,1.22-0.62,9.6,4.07,12.58c0.11,0.06,0.2,0.12,0.31,0.18
			c3.71,2.22,13.87,6.14,18.35,0.95c0.87-0.86,2.02-2.81,2.95-4.53c0.97-1.74,1.68-3.26,1.68-3.26c0.86-1.84,2.37-2.66,2.82-2.87
			c0.07-0.01,0.15-0.09,0.21-0.17C158.67,56.03,158.94,54.82,159.05,54.29z M120.22,56.02c-2.78,4.9-7.18,5.38-11.41,4.6
			c-4.24-0.78-8.1-2.52-9.67-6.34c-1.58-3.79-0.41-10.31,1.3-12.42c1.72-2.14,7.04-1.76,14.09,0.91c7.08,2.68,7.87,4.45,8.09,6.4
			C122.61,49.16,122.72,51.3,120.22,56.02z M149.25,67.03c-3.21,2.61-7.43,2.28-11.53,0.95c-4.1-1.34-7.73-3.86-7.85-9.5
			c0.08-5.33,1.2-7.16,1.2-7.16c1.13-1.61,2.67-2.78,10.14-1.76c7.5,1.03,12.32,3.24,12.84,5.94
			C154.54,58.17,152.45,64.45,149.25,67.03z"/>
		<path class="st19" d="M149.25,67.03c-3.21,2.61-7.43,2.28-11.53,0.95c-4.1-1.34-7.73-3.86-7.85-9.5c0.08-5.33,1.2-7.16,1.2-7.16
			c1.13-1.61,2.67-2.78,10.14-1.76c7.5,1.03,12.32,3.24,12.84,5.94C154.54,58.17,152.45,64.45,149.25,67.03z"/>
		<path class="st19" d="M120.22,56.02c-2.78,4.9-7.18,5.38-11.41,4.6c-4.24-0.78-8.1-2.52-9.67-6.34
			c-1.58-3.79-0.41-10.31,1.3-12.42c1.72-2.14,7.04-1.76,14.09,0.91c7.08,2.68,7.87,4.45,8.09,6.4
			C122.61,49.16,122.72,51.3,120.22,56.02z"/>
	</g>
	<polyline class="st18" points="158.04,56.97 164.43,62.64 166.58,62.54 159,53.98 	"/>
	<polyline class="st18" points="96.1,41.2 87.92,43.38 86.25,42.25 96.75,38.04 	"/>
</g>
<g id="Eye_1">
	<g>
		
			<ellipse transform="matrix(0.2468 -0.9691 0.9691 0.2468 34.6593 145.8396)" class="st15" cx="111.15" cy="50.62" rx="5.36" ry="4.1"/>
		
			<radialGradient id="SVGID_00000004523654381931572040000014032575128760637860_" cx="276.7146" cy="31.8865" r="4.7686" gradientTransform="matrix(0.9691 0.2468 -0.3225 1.2662 -146.7216 -58.0473)" gradientUnits="userSpaceOnUse">
			<stop  offset="0.2325" style="stop-color:#231108"/>
			<stop  offset="1" style="stop-color:#4A2B18;stop-opacity:0"/>
		</radialGradient>
		<path style="fill:url(#SVGID_00000004523654381931572040000014032575128760637860_);" d="M115.12,51.63
			c-0.73,2.87-3.1,4.74-5.29,4.18c-2.19-0.56-3.38-3.34-2.65-6.2c0.73-2.87,3.1-4.74,5.29-4.18
			C114.66,45.99,115.85,48.77,115.12,51.63z"/>
		
			<ellipse transform="matrix(0.9626 -0.2708 0.2708 0.9626 -9.0363 32.4531)" class="st21" cx="113.09" cy="48.97" rx="1.18" ry="1.82"/>
	</g>
</g>
<g id="Eye_2">
	<g>
		<path class="st15" d="M146.27,61.95c-0.55-0.12-0.97-0.51-1.16-0.99c-0.25-0.65-0.68-1.22-1.29-1.54
			c-0.53-0.28-1.23-0.56-2.13-0.79c-0.89-0.23-1.65-0.31-2.24-0.32c-0.69-0.01-1.34,0.28-1.87,0.73c-0.4,0.33-0.95,0.47-1.49,0.32
			c-0.99-0.28-1.4-1.44-0.97-2.38c0.72-1.55,3.18-2.55,7.38-1.48c4.2,1.07,5.88,3.12,5.77,4.83
			C148.2,61.35,147.28,62.17,146.27,61.95z M145.05,59.97C145.05,59.97,145.05,59.97,145.05,59.97
			C145.05,59.97,145.05,59.97,145.05,59.97z"/>
	</g>
	<g>
		
			<linearGradient id="SVGID_00000132782600865471681800000012976803101113751997_" gradientUnits="userSpaceOnUse" x1="308.3171" y1="32.8679" x2="308.0984" y2="29.5415" gradientTransform="matrix(0.9691 0.2468 -0.2468 0.9691 -149.1346 -48.5734)">
			<stop  offset="0" style="stop-color:#231108"/>
			<stop  offset="1" style="stop-color:#4A2B18;stop-opacity:0"/>
		</linearGradient>
		<path style="fill:url(#SVGID_00000132782600865471681800000012976803101113751997_);" d="M146.27,61.95
			c-0.55-0.12-0.97-0.51-1.16-0.99c-0.25-0.65-0.68-1.22-1.29-1.54c-0.53-0.28-1.23-0.56-2.13-0.79c-0.89-0.23-1.65-0.31-2.24-0.32
			c-0.69-0.01-1.34,0.28-1.87,0.73c-0.4,0.33-0.95,0.47-1.49,0.32c-0.99-0.28-1.4-1.44-0.97-2.38c0.72-1.55,3.18-2.55,7.38-1.48
			c4.2,1.07,5.88,3.12,5.77,4.83C148.2,61.35,147.28,62.17,146.27,61.95z M145.05,59.97C145.05,59.97,145.05,59.97,145.05,59.97
			C145.05,59.97,145.05,59.97,145.05,59.97z"/>
	</g>
</g>
<g id="Hender">
	<path class="st3" d="M75.77,14.94c-3.54,5.66-4.46,7.85-6.3,11.59c-3.87,7.86-3.98,2.82-5.97,1.38c-1.28-0.93-2.43-2.64-2.38-4.19
		c0.01-0.2,0.03-0.39,0.08-0.58c0.04-0.17,0.1-0.34,0.18-0.5l0.86-1.77C66.76,9.97,67.58,9.42,69.5,5.81
		c1.22-2.29,2.76-4.31,4.69-4.92c1.12-0.36,2.37-0.25,3.76,0.54C81.74,3.6,81.75,5.37,75.77,14.94z"/>
	<path class="st3" d="M75.77,14.94c-3.54,5.66-4.46,7.85-6.3,11.59c-3.87,7.86-3.98,2.82-5.97,1.38c-1.28-0.93-2.43-2.64-2.38-4.19
		c0.01-0.2,0.03-0.39,0.08-0.58c0.04-0.17,0.1-0.34,0.18-0.5l0.86-1.77C66.76,9.97,67.58,9.42,69.5,5.81
		c1.22-2.29,2.76-4.31,4.69-4.92c1.12-0.36,2.37-0.25,3.76,0.54C81.74,3.6,81.75,5.37,75.77,14.94z"/>
	
		<linearGradient id="SVGID_00000147193187313156611560000003764376090534310812_" gradientUnits="userSpaceOnUse" x1="56.2937" y1="32.1177" x2="76.3417" y2="8.1873">
		<stop  offset="0" style="stop-color:#BF6E51"/>
		<stop  offset="1" style="stop-color:#F3BF96;stop-opacity:0"/>
	</linearGradient>
	<path style="fill:url(#SVGID_00000147193187313156611560000003764376090534310812_);" d="M75.77,14.94
		c-3.54,5.66-4.46,7.85-6.3,11.59c-3.87,7.86-3.98,2.82-5.97,1.38c-1.28-0.93-2.43-2.64-2.38-4.19c0.01-0.2,0.03-0.39,0.08-0.58
		c0.04-0.17,0.1-0.34,0.18-0.5l0.86-1.77C66.76,9.97,67.58,9.42,69.5,5.81c1.22-2.29,2.76-4.31,4.69-4.92
		c1.12-0.36,2.37-0.25,3.76,0.54C81.74,3.6,81.75,5.37,75.77,14.94z"/>
	
		<linearGradient id="SVGID_00000163772910103811614820000012403000689286026884_" gradientUnits="userSpaceOnUse" x1="62.2989" y1="12.5767" x2="79.253" y2="12.5767">
		<stop  offset="0" style="stop-color:#BF6E51"/>
		<stop  offset="0.9591" style="stop-color:#F3BF96;stop-opacity:0"/>
	</linearGradient>
	<path style="fill:url(#SVGID_00000163772910103811614820000012403000689286026884_);" d="M68.99,9.73l-2.93,6.2
		c-0.2,0.42-0.05,0.91,0.34,1.15l1.62,1c0.15,0.09,0.05,0.32-0.12,0.28l-1.89-0.47c-0.41-0.1-0.84,0.1-1.03,0.48l-2.84,5.9
		l-1.03-0.55c0.01-0.2,0.03-0.39,0.08-0.58c0.04-0.17,0.1-0.34,0.18-0.5l0.86-1.77C66.76,9.97,67.58,9.42,69.5,5.81
		c1.22-2.29,2.76-4.31,4.69-4.92c-2.18,1.35-3.71,5.06-4.23,6.49c-0.12,0.34-0.04,0.72,0.23,0.97l1.16,1.1
		c0.12,0.12,0,0.32-0.16,0.26l-1.05-0.41C69.69,9.1,69.19,9.3,68.99,9.73z"/>
	<path class="st25" d="M45.48,28.12"/>
	<path class="st3" d="M40.01,18.28c-0.94,0.84-1.37,2.1-1.76,3.3c-0.33,1.04-0.67,2.08-1.01,3.12c-0.83,2.55-1.66,5.12-1.92,7.78
		c-0.27,2.66,0.07,5.46,1.45,7.76c1.8,2.99,5.07,4.6,8.39,5.17c0.3,0.05,0.6,0.1,0.88,0.22c0.45,0.22,0.76,0.63,1.08,1.01
		c1.35,1.61,3.13,3,5.18,3.63c2.4,0.73,4.71,0.25,6.53-1.48c0.21-0.2,0.41-0.41,0.61-0.63c1.02-1.15,1.78-2.51,2.39-3.91
		c0.53-1.21,0.83-2.56,1.55-3.68c1.31-2.07,3.66-3.56,4.25-6.05c0.32-1.36,0.02-2.81-0.5-4.11c-0.82-2.07-2.17-3.92-3.89-5.33
		c-1.62-1.33-2.89-3.05-4.65-4.24c-1.28-0.86-2.75-1.23-4.26-1.45c-1.87-0.28-3.84-0.45-5.43-1.48c-0.63-0.41-1.19-0.94-1.88-1.25
		c-1.41-0.61-3.04-0.11-4.49,0.38C41.63,17.32,40.71,17.65,40.01,18.28z"/>
	
		<linearGradient id="SVGID_00000098196845425410576070000011189921880540357771_" gradientUnits="userSpaceOnUse" x1="47.2692" y1="17.8066" x2="53.8083" y2="43.1738">
		<stop  offset="0" style="stop-color:#BF6E51"/>
		<stop  offset="1" style="stop-color:#F3BF96;stop-opacity:0"/>
	</linearGradient>
	<path style="fill:url(#SVGID_00000098196845425410576070000011189921880540357771_);" d="M40.01,18.28
		c-0.94,0.84-1.37,2.1-1.76,3.3c-0.33,1.04-0.67,2.08-1.01,3.12c-0.83,2.55-1.66,5.12-1.92,7.78c-0.27,2.66,0.07,5.46,1.45,7.76
		c1.8,2.99,5.07,4.6,8.39,5.17c0.3,0.05,0.6,0.1,0.88,0.22c0.45,0.22,0.76,0.63,1.08,1.01c1.35,1.61,3.13,3,5.18,3.63
		c2.4,0.73,4.71,0.25,6.53-1.48c0.21-0.2,0.41-0.41,0.61-0.63c1.02-1.15,1.78-2.51,2.39-3.91c0.53-1.21,0.83-2.56,1.55-3.68
		c1.31-2.07,3.66-3.56,4.25-6.05c0.32-1.36,0.02-2.81-0.5-4.11c-0.82-2.07-2.17-3.92-3.89-5.33c-1.62-1.33-2.89-3.05-4.65-4.24
		c-1.28-0.86-2.75-1.23-4.26-1.45c-1.87-0.28-3.84-0.45-5.43-1.48c-0.63-0.41-1.19-0.94-1.88-1.25c-1.41-0.61-3.04-0.11-4.49,0.38
		C41.63,17.32,40.71,17.65,40.01,18.28z"/>
	
		<linearGradient id="SVGID_00000059299973416616152340000008516928106582769549_" gradientUnits="userSpaceOnUse" x1="48.7675" y1="26.4707" x2="46.34" y2="34.5893">
		<stop  offset="0" style="stop-color:#BF6E51"/>
		<stop  offset="1" style="stop-color:#F3BF96;stop-opacity:0"/>
	</linearGradient>
	<path style="fill:url(#SVGID_00000059299973416616152340000008516928106582769549_);" d="M40.01,18.28
		c-1.82,1.62-2.19,4.65-1.56,6.88c0.36,1.29,1.32,2.51,2.64,2.79c0.7,0.15,1.44,0.02,2.11,0.27c1.11,0.4,1.77,1.72,2.94,1.89
		c0.88,0.13,1.8-0.47,2.65-0.17c0.9,0.32,1.28,1.54,2.2,1.78c0.46,0.12,0.94-0.03,1.41-0.04c0.98-0.02,1.86,0.57,2.82,0.75
		c1.64,0.31,3.35-0.67,4.22-2.1c0.86-1.43,0.98-3.21,0.67-4.86c-0.38-2-1.07-4.46-2.95-5.45c-2.53-1.33-5.75-0.52-8.26-2.13
		c-0.63-0.41-1.19-0.94-1.88-1.25c-1.41-0.61-3.04-0.11-4.49,0.38C41.63,17.32,40.71,17.65,40.01,18.28z"/>
	<path class="st3" d="M38.79,23.88c0.71,3.12,4.66,4.29,6.6-2c2.28-7.36,1.71-10.4-2.51-10.83C40.54,10.81,36.41,13.45,38.79,23.88z
		"/>
	<path class="st3" d="M43.36,24.25c0.07,3.68,4.24,5.94,7.92-0.7c4.31-7.76,4.38-11.32-0.28-12.81
		C48.41,9.92,43.13,11.92,43.36,24.25z"/>
	<path class="st3" d="M50.11,27.03c-0.29,3.9,3.74,6.39,8.14-0.54c5.15-8.11,5.58-11.87,0.97-13.56
		C56.66,12,51.08,13.98,50.11,27.03z"/>
	<path class="st3" d="M38.79,23.88c0.71,3.12,4.66,4.29,6.6-2c2.28-7.36,1.71-10.4-2.51-10.83C40.54,10.81,36.41,13.45,38.79,23.88z
		"/>
	
		<linearGradient id="SVGID_00000150792413431425340760000015333837614234296204_" gradientUnits="userSpaceOnUse" x1="44.4155" y1="29.0513" x2="42.016" y2="15.1113">
		<stop  offset="0" style="stop-color:#BF6E51"/>
		<stop  offset="1" style="stop-color:#F3BF96;stop-opacity:0"/>
	</linearGradient>
	<path style="fill:url(#SVGID_00000150792413431425340760000015333837614234296204_);" d="M38.79,23.88c0.71,3.12,4.66,4.29,6.6-2
		c2.28-7.36,1.71-10.4-2.51-10.83C40.54,10.81,36.41,13.45,38.79,23.88z"/>
	<path class="st3" d="M43.36,24.25c0.07,3.68,4.24,5.94,7.92-0.7c4.31-7.76,4.38-11.32-0.28-12.81
		C48.41,9.92,43.13,11.92,43.36,24.25z"/>
	
		<linearGradient id="SVGID_00000142894102827702537710000015981102591284154795_" gradientUnits="userSpaceOnUse" x1="44.7994" y1="32.1351" x2="50.4473" y2="12.3265">
		<stop  offset="0" style="stop-color:#BF6E51"/>
		<stop  offset="1" style="stop-color:#F3BF96;stop-opacity:0"/>
	</linearGradient>
	<path style="fill:url(#SVGID_00000142894102827702537710000015981102591284154795_);" d="M43.36,24.25
		c0.07,3.68,4.24,5.94,7.92-0.7c4.31-7.76,4.38-11.32-0.28-12.81C48.41,9.92,43.13,11.92,43.36,24.25z"/>
	<path class="st3" d="M50.11,27.03c-0.29,3.9,3.74,6.39,8.14-0.54c5.15-8.11,5.58-11.87,0.97-13.56
		C56.66,12,51.08,13.98,50.11,27.03z"/>
	<path class="st3" d="M50.11,27.03c-0.29,3.9,3.74,6.39,8.14-0.54c5.15-8.11,5.58-11.87,0.97-13.56
		C56.66,12,51.08,13.98,50.11,27.03z"/>
	
		<linearGradient id="SVGID_00000096771558269732770480000011279501436143300510_" gradientUnits="userSpaceOnUse" x1="51.5792" y1="35.9917" x2="56.3289" y2="20.67">
		<stop  offset="0" style="stop-color:#BF6E51"/>
		<stop  offset="1" style="stop-color:#F3BF96;stop-opacity:0"/>
	</linearGradient>
	<path style="fill:url(#SVGID_00000096771558269732770480000011279501436143300510_);" d="M50.11,27.03
		c-0.29,3.9,3.74,6.39,8.14-0.54c5.15-8.11,5.58-11.87,0.97-13.56C56.66,12,51.08,13.98,50.11,27.03z"/>
	
		<linearGradient id="SVGID_00000090292743808458501780000001055931759870888871_" gradientUnits="userSpaceOnUse" x1="38.0148" y1="18.729" x2="44.6135" y2="18.729">
		<stop  offset="0" style="stop-color:#BF6E51"/>
		<stop  offset="1" style="stop-color:#F3BF96;stop-opacity:0"/>
	</linearGradient>
	<path style="fill:url(#SVGID_00000090292743808458501780000001055931759870888871_);" d="M42.82,11.06
		c0.69,0.07,1.29,0.21,1.79,0.43c-0.28-0.07-0.59-0.12-0.92-0.15c-2.35-0.24-6.48,2.4-4.09,12.83c0.23,1.02,0.81,1.82,1.55,2.24
		c-1.14-0.13-2.1-1.13-2.42-2.52C36.35,13.46,40.48,10.82,42.82,11.06z"/>
	<g>
		<g>
			<defs>
				<path id="SVGID_00000099635177184337063110000002343484299733717176_" d="M50.84,10.71c0.42,0.13,0.79,0.28,1.13,0.45
					c-2.76-0.95-7.98,1.04-7.79,13.45c0.03,1.35,0.6,2.5,1.5,3.1C39.9,26.11,44.51,8.04,50.84,10.71z"/>
			</defs>
			<clipPath id="SVGID_00000127726639266821191610000015808454336137127310_">
				<use xlink:href="#SVGID_00000099635177184337063110000002343484299733717176_"  style="overflow:visible;"/>
			</clipPath>
			
				<rect x="39.9" y="8.04" style="clip-path:url(#SVGID_00000127726639266821191610000015808454336137127310_);fill:#BF6E51;" width="3.14" height="19.67"/>
			
				<rect x="43.04" y="8.04" style="clip-path:url(#SVGID_00000127726639266821191610000015808454336137127310_);fill:#BF6E51;" width="0.11" height="19.67"/>
			
				<rect x="43.15" y="8.04" style="clip-path:url(#SVGID_00000127726639266821191610000015808454336137127310_);fill:#C06F52;" width="0.11" height="19.67"/>
			
				<rect x="43.26" y="8.04" style="clip-path:url(#SVGID_00000127726639266821191610000015808454336137127310_);fill:#C07053;" width="0.11" height="19.67"/>
			
				<rect x="43.37" y="8.04" style="clip-path:url(#SVGID_00000127726639266821191610000015808454336137127310_);fill:#C17154;" width="0.11" height="19.67"/>
			
				<rect x="43.48" y="8.04" style="clip-path:url(#SVGID_00000127726639266821191610000015808454336137127310_);fill:#C27254;" width="0.11" height="19.67"/>
			
				<rect x="43.59" y="8.04" style="clip-path:url(#SVGID_00000127726639266821191610000015808454336137127310_);fill:#C27355;" width="0.11" height="19.67"/>
			
				<rect x="43.7" y="8.04" style="clip-path:url(#SVGID_00000127726639266821191610000015808454336137127310_);fill:#C37456;" width="0.11" height="19.67"/>
			
				<rect x="43.81" y="8.04" style="clip-path:url(#SVGID_00000127726639266821191610000015808454336137127310_);fill:#C47557;" width="0.11" height="19.67"/>
			
				<rect x="43.92" y="8.04" style="clip-path:url(#SVGID_00000127726639266821191610000015808454336137127310_);fill:#C47658;" width="0.11" height="19.67"/>
			
				<rect x="44.03" y="8.04" style="clip-path:url(#SVGID_00000127726639266821191610000015808454336137127310_);fill:#C57759;" width="0.11" height="19.67"/>
			
				<rect x="44.14" y="8.04" style="clip-path:url(#SVGID_00000127726639266821191610000015808454336137127310_);fill:#C6785A;" width="0.11" height="19.67"/>
			
				<rect x="44.25" y="8.04" style="clip-path:url(#SVGID_00000127726639266821191610000015808454336137127310_);fill:#C6795A;" width="0.11" height="19.67"/>
			
				<rect x="44.36" y="8.04" style="clip-path:url(#SVGID_00000127726639266821191610000015808454336137127310_);fill:#C77A5B;" width="0.11" height="19.67"/>
			
				<rect x="44.47" y="8.04" style="clip-path:url(#SVGID_00000127726639266821191610000015808454336137127310_);fill:#C77B5C;" width="0.11" height="19.67"/>
			
				<rect x="44.58" y="8.04" style="clip-path:url(#SVGID_00000127726639266821191610000015808454336137127310_);fill:#C87C5D;" width="0.11" height="19.67"/>
			
				<rect x="44.69" y="8.04" style="clip-path:url(#SVGID_00000127726639266821191610000015808454336137127310_);fill:#C97D5E;" width="0.11" height="19.67"/>
			
				<rect x="44.8" y="8.04" style="clip-path:url(#SVGID_00000127726639266821191610000015808454336137127310_);fill:#C97E5F;" width="0.11" height="19.67"/>
			
				<rect x="44.91" y="8.04" style="clip-path:url(#SVGID_00000127726639266821191610000015808454336137127310_);fill:#CA7F60;" width="0.11" height="19.67"/>
			
				<rect x="45.03" y="8.04" style="clip-path:url(#SVGID_00000127726639266821191610000015808454336137127310_);fill:#CB8061;" width="0.11" height="19.67"/>
			
				<rect x="45.14" y="8.04" style="clip-path:url(#SVGID_00000127726639266821191610000015808454336137127310_);fill:#CB8161;" width="0.11" height="19.67"/>
			
				<rect x="45.25" y="8.04" style="clip-path:url(#SVGID_00000127726639266821191610000015808454336137127310_);fill:#CC8262;" width="0.11" height="19.67"/>
			
				<rect x="45.36" y="8.04" style="clip-path:url(#SVGID_00000127726639266821191610000015808454336137127310_);fill:#CD8363;" width="0.11" height="19.67"/>
			
				<rect x="45.47" y="8.04" style="clip-path:url(#SVGID_00000127726639266821191610000015808454336137127310_);fill:#CD8464;" width="0.11" height="19.67"/>
			
				<rect x="45.58" y="8.04" style="clip-path:url(#SVGID_00000127726639266821191610000015808454336137127310_);fill:#CE8565;" width="0.11" height="19.67"/>
			
				<rect x="45.69" y="8.04" style="clip-path:url(#SVGID_00000127726639266821191610000015808454336137127310_);fill:#CF8666;" width="0.11" height="19.67"/>
			
				<rect x="45.8" y="8.04" style="clip-path:url(#SVGID_00000127726639266821191610000015808454336137127310_);fill:#CF8767;" width="0.11" height="19.67"/>
			
				<rect x="45.91" y="8.04" style="clip-path:url(#SVGID_00000127726639266821191610000015808454336137127310_);fill:#D08867;" width="0.11" height="19.67"/>
			
				<rect x="46.02" y="8.04" style="clip-path:url(#SVGID_00000127726639266821191610000015808454336137127310_);fill:#D18968;" width="0.11" height="19.67"/>
			
				<rect x="46.13" y="8.04" style="clip-path:url(#SVGID_00000127726639266821191610000015808454336137127310_);fill:#D18A69;" width="0.11" height="19.67"/>
			
				<rect x="46.24" y="8.04" style="clip-path:url(#SVGID_00000127726639266821191610000015808454336137127310_);fill:#D28B6A;" width="0.11" height="19.67"/>
			
				<rect x="46.35" y="8.04" style="clip-path:url(#SVGID_00000127726639266821191610000015808454336137127310_);fill:#D38C6B;" width="0.11" height="19.67"/>
			
				<rect x="46.46" y="8.04" style="clip-path:url(#SVGID_00000127726639266821191610000015808454336137127310_);fill:#D38D6C;" width="0.11" height="19.67"/>
			
				<rect x="46.57" y="8.04" style="clip-path:url(#SVGID_00000127726639266821191610000015808454336137127310_);fill:#D48E6D;" width="0.11" height="19.67"/>
			
				<rect x="46.68" y="8.04" style="clip-path:url(#SVGID_00000127726639266821191610000015808454336137127310_);fill:#D48F6D;" width="0.11" height="19.67"/>
			
				<rect x="46.79" y="8.04" style="clip-path:url(#SVGID_00000127726639266821191610000015808454336137127310_);fill:#D5906E;" width="0.11" height="19.67"/>
			
				<rect x="46.9" y="8.04" style="clip-path:url(#SVGID_00000127726639266821191610000015808454336137127310_);fill:#D6916F;" width="0.11" height="19.67"/>
			
				<rect x="47.01" y="8.04" style="clip-path:url(#SVGID_00000127726639266821191610000015808454336137127310_);fill:#D69270;" width="0.11" height="19.67"/>
			
				<rect x="47.12" y="8.04" style="clip-path:url(#SVGID_00000127726639266821191610000015808454336137127310_);fill:#D79371;" width="0.11" height="19.67"/>
			
				<rect x="47.23" y="8.04" style="clip-path:url(#SVGID_00000127726639266821191610000015808454336137127310_);fill:#D89472;" width="0.11" height="19.67"/>
			
				<rect x="47.34" y="8.04" style="clip-path:url(#SVGID_00000127726639266821191610000015808454336137127310_);fill:#D89573;" width="0.11" height="19.67"/>
			
				<rect x="47.45" y="8.04" style="clip-path:url(#SVGID_00000127726639266821191610000015808454336137127310_);fill:#D99774;" width="0.11" height="19.67"/>
			
				<rect x="47.56" y="8.04" style="clip-path:url(#SVGID_00000127726639266821191610000015808454336137127310_);fill:#DA9874;" width="0.11" height="19.67"/>
			
				<rect x="47.67" y="8.04" style="clip-path:url(#SVGID_00000127726639266821191610000015808454336137127310_);fill:#DA9975;" width="0.11" height="19.67"/>
			
				<rect x="47.78" y="8.04" style="clip-path:url(#SVGID_00000127726639266821191610000015808454336137127310_);fill:#DB9A76;" width="0.11" height="19.67"/>
			
				<rect x="47.89" y="8.04" style="clip-path:url(#SVGID_00000127726639266821191610000015808454336137127310_);fill:#DC9B77;" width="0.11" height="19.67"/>
			
				<rect x="48" y="8.04" style="clip-path:url(#SVGID_00000127726639266821191610000015808454336137127310_);fill:#DC9C78;" width="0.11" height="19.67"/>
			
				<rect x="48.11" y="8.04" style="clip-path:url(#SVGID_00000127726639266821191610000015808454336137127310_);fill:#DD9D79;" width="0.11" height="19.67"/>
			
				<rect x="48.22" y="8.04" style="clip-path:url(#SVGID_00000127726639266821191610000015808454336137127310_);fill:#DE9E7A;" width="0.11" height="19.67"/>
			
				<rect x="48.33" y="8.04" style="clip-path:url(#SVGID_00000127726639266821191610000015808454336137127310_);fill:#DE9F7A;" width="0.11" height="19.67"/>
			
				<rect x="48.44" y="8.04" style="clip-path:url(#SVGID_00000127726639266821191610000015808454336137127310_);fill:#DFA07B;" width="0.11" height="19.67"/>
			
				<rect x="48.55" y="8.04" style="clip-path:url(#SVGID_00000127726639266821191610000015808454336137127310_);fill:#E0A17C;" width="0.11" height="19.67"/>
			
				<rect x="48.66" y="8.04" style="clip-path:url(#SVGID_00000127726639266821191610000015808454336137127310_);fill:#E0A27D;" width="0.11" height="19.67"/>
			
				<rect x="48.77" y="8.04" style="clip-path:url(#SVGID_00000127726639266821191610000015808454336137127310_);fill:#E1A37E;" width="0.11" height="19.67"/>
			
				<rect x="48.88" y="8.04" style="clip-path:url(#SVGID_00000127726639266821191610000015808454336137127310_);fill:#E1A47F;" width="0.11" height="19.67"/>
			
				<rect x="49" y="8.04" style="clip-path:url(#SVGID_00000127726639266821191610000015808454336137127310_);fill:#E2A580;" width="0.11" height="19.67"/>
			
				<rect x="49.11" y="8.04" style="clip-path:url(#SVGID_00000127726639266821191610000015808454336137127310_);fill:#E3A680;" width="0.11" height="19.67"/>
			
				<rect x="49.22" y="8.04" style="clip-path:url(#SVGID_00000127726639266821191610000015808454336137127310_);fill:#E3A781;" width="0.11" height="19.67"/>
			
				<rect x="49.33" y="8.04" style="clip-path:url(#SVGID_00000127726639266821191610000015808454336137127310_);fill:#E4A882;" width="0.11" height="19.67"/>
			
				<rect x="49.44" y="8.04" style="clip-path:url(#SVGID_00000127726639266821191610000015808454336137127310_);fill:#E5A983;" width="0.11" height="19.67"/>
			
				<rect x="49.55" y="8.04" style="clip-path:url(#SVGID_00000127726639266821191610000015808454336137127310_);fill:#E5AA84;" width="0.11" height="19.67"/>
			
				<rect x="49.66" y="8.04" style="clip-path:url(#SVGID_00000127726639266821191610000015808454336137127310_);fill:#E6AB85;" width="0.11" height="19.67"/>
			
				<rect x="49.77" y="8.04" style="clip-path:url(#SVGID_00000127726639266821191610000015808454336137127310_);fill:#E7AC86;" width="0.11" height="19.67"/>
			
				<rect x="49.88" y="8.04" style="clip-path:url(#SVGID_00000127726639266821191610000015808454336137127310_);fill:#E7AD86;" width="0.11" height="19.67"/>
			
				<rect x="49.99" y="8.04" style="clip-path:url(#SVGID_00000127726639266821191610000015808454336137127310_);fill:#E8AE87;" width="0.11" height="19.67"/>
			
				<rect x="50.1" y="8.04" style="clip-path:url(#SVGID_00000127726639266821191610000015808454336137127310_);fill:#E9AF88;" width="0.11" height="19.67"/>
			
				<rect x="50.21" y="8.04" style="clip-path:url(#SVGID_00000127726639266821191610000015808454336137127310_);fill:#E9B089;" width="0.11" height="19.67"/>
			
				<rect x="50.32" y="8.04" style="clip-path:url(#SVGID_00000127726639266821191610000015808454336137127310_);fill:#EAB18A;" width="0.11" height="19.67"/>
			
				<rect x="50.43" y="8.04" style="clip-path:url(#SVGID_00000127726639266821191610000015808454336137127310_);fill:#EBB28B;" width="0.11" height="19.67"/>
			
				<rect x="50.54" y="8.04" style="clip-path:url(#SVGID_00000127726639266821191610000015808454336137127310_);fill:#EBB38C;" width="0.11" height="19.67"/>
			
				<rect x="50.65" y="8.04" style="clip-path:url(#SVGID_00000127726639266821191610000015808454336137127310_);fill:#ECB48D;" width="0.11" height="19.67"/>
			
				<rect x="50.76" y="8.04" style="clip-path:url(#SVGID_00000127726639266821191610000015808454336137127310_);fill:#EDB58D;" width="0.11" height="19.67"/>
			
				<rect x="50.87" y="8.04" style="clip-path:url(#SVGID_00000127726639266821191610000015808454336137127310_);fill:#EDB68E;" width="0.11" height="19.67"/>
			
				<rect x="50.98" y="8.04" style="clip-path:url(#SVGID_00000127726639266821191610000015808454336137127310_);fill:#EEB78F;" width="0.11" height="19.67"/>
			
				<rect x="51.09" y="8.04" style="clip-path:url(#SVGID_00000127726639266821191610000015808454336137127310_);fill:#EEB890;" width="0.11" height="19.67"/>
			
				<rect x="51.2" y="8.04" style="clip-path:url(#SVGID_00000127726639266821191610000015808454336137127310_);fill:#EFB991;" width="0.11" height="19.67"/>
			
				<rect x="51.31" y="8.04" style="clip-path:url(#SVGID_00000127726639266821191610000015808454336137127310_);fill:#F0BA92;" width="0.11" height="19.67"/>
			
				<rect x="51.42" y="8.04" style="clip-path:url(#SVGID_00000127726639266821191610000015808454336137127310_);fill:#F0BB93;" width="0.11" height="19.67"/>
			
				<rect x="51.53" y="8.04" style="clip-path:url(#SVGID_00000127726639266821191610000015808454336137127310_);fill:#F1BC93;" width="0.11" height="19.67"/>
			
				<rect x="51.64" y="8.04" style="clip-path:url(#SVGID_00000127726639266821191610000015808454336137127310_);fill:#F2BD94;" width="0.11" height="19.67"/>
			
				<rect x="51.75" y="8.04" style="clip-path:url(#SVGID_00000127726639266821191610000015808454336137127310_);fill:#F2BE95;" width="0.11" height="19.67"/>
			
				<rect x="51.86" y="8.04" style="clip-path:url(#SVGID_00000127726639266821191610000015808454336137127310_);fill:#F3BF96;" width="0.11" height="19.67"/>
			<path style="clip-path:url(#SVGID_00000127726639266821191610000015808454336137127310_);fill:#F3BF96;" d="M51.97,27.71V8.04
				V27.71z"/>
		</g>
	</g>
	
		<linearGradient id="SVGID_00000116205230183256994940000016200470815937473727_" gradientUnits="userSpaceOnUse" x1="50.0879" y1="21.793" x2="59.3863" y2="21.793">
		<stop  offset="0" style="stop-color:#BF6E51"/>
		<stop  offset="1" style="stop-color:#F3BF96;stop-opacity:0"/>
	</linearGradient>
	<path style="fill:url(#SVGID_00000116205230183256994940000016200470815937473727_);" d="M59.22,12.92
		c0.06,0.02,0.11,0.04,0.17,0.07c-2.78-0.21-7.34,2.61-8.21,14.28c-0.12,1.63,0.5,3.05,1.6,3.6c-1.74-0.02-2.83-1.75-2.68-3.86
		C51.07,13.97,56.66,11.98,59.22,12.92z"/>
	<path class="st3" d="M61.44,23.94c1.9,1.62,3.82,3.27,5.11,5.45c0.75,1.27,1.27,2.7,1.28,4.19c0.01,1.32-0.37,3.11-1.84,3.58
		c-0.64,0.21-1.34-0.18-1.78-0.69c-0.44-0.51-0.71-1.15-1.11-1.69c-0.42-0.57-1-1.03-1.66-1.29c-0.45-0.18-0.92-0.28-1.39-0.37
		c-0.91-0.18-1.96-0.23-2.82-0.55c-0.67-0.25-1.32-0.78-1.85-1.24c-1.12-0.96-2.03-2.17-2.67-3.49c-0.92-1.91-1.64-4.94,0.24-6.55
		C55.12,19.42,55.92,19.21,61.44,23.94z"/>
	
		<linearGradient id="SVGID_00000006675628144503425160000017175287300753706895_" gradientUnits="userSpaceOnUse" x1="43.6854" y1="21.8552" x2="66.6004" y2="31.0467">
		<stop  offset="0" style="stop-color:#BF6E51"/>
		<stop  offset="1" style="stop-color:#F3BF96;stop-opacity:0"/>
	</linearGradient>
	<path style="fill:url(#SVGID_00000006675628144503425160000017175287300753706895_);" d="M61.44,23.94
		c1.9,1.62,3.82,3.27,5.11,5.45c0.75,1.27,1.27,2.7,1.28,4.19c0.01,1.32-0.37,3.11-1.84,3.58c-0.64,0.21-1.34-0.18-1.78-0.69
		c-0.44-0.51-0.71-1.15-1.11-1.69c-0.42-0.57-1-1.03-1.66-1.29c-0.45-0.18-0.92-0.28-1.39-0.37c-0.91-0.18-1.96-0.23-2.82-0.55
		c-0.67-0.25-1.32-0.78-1.85-1.24c-1.12-0.96-2.03-2.17-2.67-3.49c-0.92-1.91-1.64-4.94,0.24-6.55
		C55.12,19.42,55.92,19.21,61.44,23.94z"/>
	<path class="st115" d="M53.79,21.9l0.52-0.47c0.78-0.7,1.99-0.64,2.69,0.14l1.08,1.2c0.36,0.4,0.33,1.02-0.07,1.39l-1.89,1.7
		c-0.4,0.36-1.02,0.33-1.39-0.07l-1.08-1.2C52.94,23.81,53.01,22.6,53.79,21.9z"/>
	<path class="st115" d="M46.49,27l-0.77-0.26c-0.78-0.26-1.19-1.11-0.93-1.89l0.32-0.95c0.14-0.4,0.57-0.62,0.97-0.48l2.13,0.73
		c0.4,0.14,0.62,0.57,0.48,0.97l-0.32,0.95C48.12,26.85,47.27,27.27,46.49,27z"/>
	<path class="st115" d="M41.79,25.52l-0.5,0.11c-0.5,0.11-1-0.2-1.12-0.71l-0.14-0.62c-0.06-0.26,0.11-0.52,0.36-0.58l1.38-0.31
		c0.26-0.06,0.52,0.11,0.58,0.36l0.14,0.62C42.61,24.91,42.29,25.41,41.79,25.52z"/>
	<g>
		<path class="st3" d="M65.58,38.87c-0.1,0-0.2-0.04-0.27-0.11c-0.15-0.15-0.15-0.4,0-0.55c1.58-1.58,2.35-3.28,2.27-5.06
			c-0.16-3.91-4.24-7.36-6.2-9.02l-0.34-0.29c-5.55-4.75-6.07-4.31-7.99-2.66c-0.87,0.74-1.2,2.04-0.94,3.65
			c0.44,2.64,2.54,5.98,5.72,7.25c0.93,0.37,1.9,0.54,2.86,0.48c0.22-0.01,0.4,0.15,0.41,0.37c0.01,0.21-0.15,0.4-0.37,0.41
			c-1.08,0.05-2.16-0.13-3.19-0.54c-3.44-1.37-5.73-4.98-6.2-7.84c-0.31-1.89,0.11-3.44,1.2-4.37c2.42-2.07,3.47-2.07,9,2.66
			l0.33,0.28c2.04,1.73,6.3,5.33,6.47,9.58c0.08,2-0.76,3.9-2.5,5.64C65.77,38.83,65.68,38.87,65.58,38.87z"/>
	</g>
	<g>
		
			<linearGradient id="SVGID_00000105385420762050805860000000692635844169480859_" gradientUnits="userSpaceOnUse" x1="54.8481" y1="33.3387" x2="67.9256" y2="22.3075">
			<stop  offset="0" style="stop-color:#BF6E51"/>
			<stop  offset="1" style="stop-color:#F3BF96;stop-opacity:0"/>
		</linearGradient>
		<path style="fill:url(#SVGID_00000105385420762050805860000000692635844169480859_);" d="M65.58,38.87c-0.1,0-0.2-0.04-0.27-0.11
			c-0.15-0.15-0.15-0.4,0-0.55c1.58-1.58,2.35-3.28,2.27-5.06c-0.16-3.91-4.24-7.36-6.2-9.02l-0.34-0.29
			c-5.55-4.75-6.07-4.31-7.99-2.66c-0.87,0.74-1.2,2.04-0.94,3.65c0.44,2.64,2.54,5.98,5.72,7.25c0.93,0.37,1.9,0.54,2.86,0.48
			c0.22-0.01,0.4,0.15,0.41,0.37c0.01,0.21-0.15,0.4-0.37,0.41c-1.08,0.05-2.16-0.13-3.19-0.54c-3.44-1.37-5.73-4.98-6.2-7.84
			c-0.31-1.89,0.11-3.44,1.2-4.37c2.42-2.07,3.47-2.07,9,2.66l0.33,0.28c2.04,1.73,6.3,5.33,6.47,9.58c0.08,2-0.76,3.9-2.5,5.64
			C65.77,38.83,65.68,38.87,65.58,38.87z"/>
	</g>
	<path class="st3" d="M57.69,32.44"/>
	
		<linearGradient id="SVGID_00000052071498928069614380000001771407609703364261_" gradientUnits="userSpaceOnUse" x1="164.1652" y1="-8.6668" x2="161.4393" y2="20.6927" gradientTransform="matrix(0.9855 0.1698 -0.1698 0.9855 -112.223 7.3358)">
		<stop  offset="0" style="stop-color:#BF6E51"/>
		<stop  offset="1" style="stop-color:#F3BF96;stop-opacity:0"/>
	</linearGradient>
	<path style="fill:url(#SVGID_00000052071498928069614380000001771407609703364261_);" d="M54.75,32.87
		c-0.11-0.34-0.47-0.53-0.81-0.42c-2.73,0.87-4.65,2.06-6.02,3.31c-0.41-1.83-1.43-3.35-2.86-4.19c-0.31-0.18-0.71-0.08-0.89,0.23
		c-0.18,0.31-0.08,0.71,0.23,0.89c1.32,0.78,2.23,2.4,2.4,4.26c-2.16,2.63-2.19,5.18-2.19,5.35c0,0.28,0.18,0.52,0.44,0.61
		c0.07,0.02,0.14,0.03,0.21,0.03c0.36,0,0.65-0.29,0.65-0.65c0-0.24,0.11-5.94,8.43-8.6C54.68,33.58,54.86,33.21,54.75,32.87z"/>
</g>
<g id="Munn">
	<path d="M109.92,77.36c6.65,4.66,10.91,4.46,17.57,4.16s7.2,2.66,5.22,5.66c-1.98,3-9.82,6.45-18.36,2.6
		c-8.54-3.85-10.18-10.45-9.45-12.23C105.45,76.18,107.27,75.5,109.92,77.36z"/>
	<path class="st118" d="M109.94,77.37c6.65,4.66,10.91,4.46,17.57,4.16c6.66-0.3,7.2,2.66,5.22,5.66c-1.98,3-9.82,6.45-18.36,2.6
		c-8.54-3.85-10.18-10.45-9.45-12.23C105.47,76.19,107.29,75.51,109.94,77.37z"/>
	<g>
		<defs>
			<path id="SVGID_00000073702052215037848900000002297429072201646737_" d="M109.92,77.36c6.65,4.66,10.91,4.46,17.57,4.16
				s7.2,2.66,5.22,5.66c-1.98,3-9.82,6.45-18.36,2.6c-8.54-3.85-10.18-10.45-9.45-12.23C105.45,76.18,107.27,75.5,109.92,77.36z"/>
		</defs>
		<clipPath id="SVGID_00000129895558522522675330000011529360890992552091_">
			<use xlink:href="#SVGID_00000073702052215037848900000002297429072201646737_"  style="overflow:visible;"/>
		</clipPath>
		<g style="clip-path:url(#SVGID_00000129895558522522675330000011529360890992552091_);">
			<path class="st21" d="M134.44,87.41l-5.7,3.88l-9.8,2.17c0,0-9.41-2.48-10.77-7.65c-0.95-3.61,1.83-4.04,1.83-4.04
				c-2.53-1.23-2.15-2.81-1.87-4.1c0.13-0.57,0.41-1.17,0.75-1.79c0.15-0.27,0.31-0.55,0.47-0.84l10.68,2.6l11.79,1.54l0.11,0.18
				l2.42,4.05l0.08,3.43L134.44,87.41z"/>
			<path class="st120" d="M135.73,85.5c0,0-0.59,0.64-1.3,1.33c-1.35,1.33-3.12,2.89-1.94,0.65c1.8-3.41-1.58-4.18-3.24-4.15
				c-1.67,0.03-5.76,0.49-11.04-0.9c-4.11-1.08-7.35-2.72-10.07-4.78c0.13-0.57,0.41-1.17,0.75-1.79l0.8,0.02l8.71,4.26l7.39-0.64
				l6.14-0.15l2.05-0.05L135.73,85.5z"/>
		</g>
	</g>
</g>
</svg>
